#!OML:ASF H:\Terrain\Patient Classification 1\Walking\liu\liu.ASF
:FULLY-SPECIFIED
:DEGREES
124
root 9.77093 16.4943 -15.713 4.65878 1.83248 4.93459
lowerback -5.19437 -3.54138 -7.42042
upperback -0.924188 -4.37084 2.45262
thorax 2.70074 -2.26916 6.37837
lowerneck -20.6292 -3.8315 -13.6001
upperneck 22.7523 -4.22554 12.2254
head 11.3757 -1.61304 6.19221
rclavicle 3.65764e-014 1.59028e-015
rhumerus -48.6689 14.0166 -87.007
rradius 35.7391
rwrist -19.611
rhand -30.4316 -24.2172
rfingers 7.12502
rthumb -3.73427 -54.1643
lclavicle 3.65764e-014 1.59028e-015
lhumerus -15.7695 -14.7347 86.646
lradius 29.2687
lwrist 5.3027
lhand -13.5424 -22.1322
lfingers 7.12502
lthumb 12.5703 7.46967
rfemur -35.438 -0.0376851 15.0598
rtibia 37.965
rfoot -19.821 -9.78455
rtoes -19.2417
lfemur -0.41465 2.82175 -30.5839
ltibia 13.3416
lfoot -16.5282 5.7768
ltoes 0.475786
125
root 9.77305 16.4897 -15.5828 4.85422 2.0737 5.05366
lowerback -5.77926 -3.68967 -7.40704
upperback -0.627837 -4.51592 2.3055
thorax 3.35004 -2.37347 6.1556
lowerneck -21.1168 -3.75977 -13.3003
upperneck 22.7267 -4.18123 12.3121
head 11.4489 -1.54172 6.18461
rclavicle -3.26752e-014 3.10104e-014
rhumerus -48.8465 14.6039 -87.705
rradius 36.354
rwrist -20.6231
rhand -29.0307 -25.9
rfingers 7.12502
rthumb -2.3814 -55.8665
lclavicle -3.26752e-014 3.10104e-014
lhumerus -15.4214 -15.7812 86.3824
lradius 30.4359
lwrist 5.68185
lhand -13.8156 -22.0038
lfingers 7.12502
lthumb 12.3069 7.61402
rfemur -35.9586 0.660937 14.5451
rtibia 36.3707
rfoot -19.6344 -9.29481
rtoes -21.2369
lfemur 0.730561 2.78859 -30.6659
ltibia 11.6609
lfoot -16.0728 5.68599
ltoes -0.446846
126
root 9.77069 16.4867 -15.454 4.9884 2.22764 5.58216
lowerback -6.63981 -3.70492 -7.59506
upperback -0.11545 -4.4278 1.8386
thorax 4.33384 -2.378 5.71145
lowerneck -21.3653 -3.84444 -13.0359
upperneck 22.2902 -4.39874 12.5783
head 11.3681 -1.57288 6.18903
rclavicle 4.2192e-014 7.15625e-015
rhumerus -48.1168 13.9286 -87.9016
rradius 36.0573
rwrist -20.8774
rhand -28.7514 -25.2799
rfingers 7.12502
rthumb -2.11162 -55.2492
lclavicle 4.2192e-014 7.15625e-015
lhumerus -14.7799 -17.2917 85.9603
lradius 31.5301
lwrist 5.98755
lhand -14.0291 -22.0599
lfingers 7.12502
lthumb 12.1011 7.5702
rfemur -36.3928 1.6792 13.4508
rtibia 34.9015
rfoot -19.7136 -9.16843
rtoes -21.6626
lfemur 2.03832 2.93445 -31.1462
ltibia 9.83565
lfoot -15.5894 5.52597
ltoes -1.721
127
root 9.77006 16.4858 -15.3229 5.17806 2.44864 5.67982
lowerback -7.18632 -3.69126 -7.45026
upperback 0.0517213 -4.36595 1.65685
thorax 4.78201 -2.36127 5.40936
lowerneck -21.3625 -4.00564 -12.8476
upperneck 22.0616 -4.64805 12.4799
head 11.3136 -1.6792 6.06578
rclavicle -4.23908e-014 -1.66979e-014
rhumerus -47.8405 13.185 -87.6669
rradius 35.7558
rwrist -19.9572
rhand -28.6755 -24.3635
rfingers 7.12502
rthumb -2.0383 -54.3335
lclavicle -4.23908e-014 -1.66979e-014
lhumerus -14.6486 -19.0458 85.9568
lradius 32.5728
lwrist 6.70075
lhand -13.8754 -22.2573
lfingers 7.12502
lthumb 12.2492 7.36397
rfemur -36.8444 2.90711 12.6628
rtibia 33.5891
rfoot -20.1521 -8.83087
rtoes -18.5378
lfemur 3.69334 3.03456 -31.1796
ltibia 7.24234
lfoot -14.7785 5.37999
ltoes -3.22929
128
root 9.76668 16.486 -15.1909 5.33901 2.73354 5.48113
lowerback -7.25367 -3.74048 -7.263
upperback -0.0930812 -4.44989 1.75111
thorax 4.67289 -2.39163 5.39314
lowerneck -21.3142 -4.07281 -12.5859
upperneck 22.2047 -4.73665 12.0581
head 11.3523 -1.74961 5.84667
rclavicle -4.86029e-014 -3.97569e-015
rhumerus -48.5533 13.1345 -87.6217
rradius 36.3725
rwrist -18.8033
rhand -25.4124 -30.135
rfingers 7.12502
rthumb 1.11331 -60.1118
lclavicle -4.86029e-014 -3.97569e-015
lhumerus -15.0673 -20.2856 86.3382
lradius 33.6002
lwrist 7.43562
lhand -13.6053 -22.375
lfingers 7.12502
lthumb 12.5096 7.23051
rfemur -37.2991 4.20957 12.1486
rtibia 32.346
rfoot -20.6955 -8.53419
rtoes -16.8721
lfemur 6.28422 3.09716 -30.8662
ltibia 2.88409
lfoot -13.1135 5.11366
ltoes -2.79618
129
root 9.75948 16.4889 -15.0612 5.334 3.09468 5.43527
lowerback -7.15834 -3.80091 -7.21459
upperback -0.111129 -4.54075 1.72193
thorax 4.60757 -2.43246 5.32879
lowerneck -21.3279 -4.09233 -12.3352
upperneck 22.2397 -4.82715 11.9659
head 11.372 -1.77958 5.75386
rclavicle 7.50661e-014 -1.98785e-014
rhumerus -48.901 12.7581 -87.5933
rradius 36.5122
rwrist -17.8205
rhand -23.3831 -36.7429
rfingers 7.12502
rthumb 3.0731 -66.7005
lclavicle 7.50661e-014 -1.98785e-014
lhumerus -15.3329 -20.7677 86.5572
lradius 34.5082
lwrist 7.26653
lhand -13.2583 -22.6658
lfingers 7.12502
lthumb 12.8442 6.91905
rfemur -37.6602 5.50018 11.4375
rtibia 31.1139
rfoot -20.7682 -8.8018
rtoes -17.1847
lfemur 8.28025 3.10088 -30.676
ltibia 2.22639e-014
lfoot -11.9761 4.90219
ltoes -2.35697
130
root 9.75199 16.4903 -14.9303 5.40579 3.44308 5.2408
lowerback -7.27785 -3.96826 -7.03513
upperback -0.061796 -4.77171 1.77627
thorax 4.75126 -2.5496 5.24468
lowerneck -21.566 -4.0096 -12.128
upperneck 22.3234 -4.75675 11.9562
head 11.4332 -1.72446 5.73104
rclavicle -7.99611e-014 1.03368e-014
rhumerus -48.8018 12.767 -87.6521
rradius 36.2134
rwrist -17.5708
rhand -26.2282 -34.9865
rfingers 7.12502
rthumb 0.32537 -64.966
lclavicle -7.99611e-014 1.03368e-014
lhumerus -15.4646 -20.8806 86.5858
lradius 35.352
lwrist 6.87741
lhand -12.8538 -23.127
lfingers 7.12502
lthumb 13.2341 6.43294
rfemur -38.1152 7.34705 10.5585
rtibia 29.9672
rfoot -21.104 -9.57591
rtoes -17.6197
lfemur 8.6619 3.11289 -30.3002
ltibia -4.13472e-014
lfoot -12.168 4.70874
ltoes -2.8719
131
root 9.7436 16.4853 -14.7965 5.51709 3.82927 5.02375
lowerback -7.42616 -4.19185 -6.91415
upperback -0.11119 -5.08013 1.97392
thorax 4.83621 -2.70378 5.3345
lowerneck -21.5257 -3.90205 -12.3123
upperneck 22.3549 -4.54376 11.9481
head 11.4101 -1.64667 5.79601
rclavicle -3.37934e-015 1.90833e-014
rhumerus -49.0532 13.3597 -87.8181
rradius 36.518
rwrist -18.145
rhand -26.8173 -31.3738
rfingers 7.12502
rthumb -0.243662 -61.3534
lclavicle -3.37934e-015 1.90833e-014
lhumerus -15.8212 -20.9163 86.928
lradius 36.1861
lwrist 6.73768
lhand -12.4331 -23.4913
lfingers 7.12502
lthumb 13.6396 6.04182
rfemur -38.546 9.70084 9.38236
rtibia 28.9803
rfoot -22.2462 -10.7376
rtoes -19.6994
lfemur 9.04026 3.08203 -29.9009
ltibia 3.97569e-014
lfoot -12.4238 4.45673
ltoes -3.3783
132
root 9.73512 16.4738 -14.663 5.52284 4.22846 5.12958
lowerback -7.43212 -4.23587 -6.99482
upperback -0.108069 -5.13189 1.98346
thorax 4.85889 -2.7323 5.38194
lowerneck -21.1544 -4.05211 -12.6073
upperneck 21.9691 -4.67162 11.9555
head 11.2212 -1.73678 5.80909
rclavicle -5.68524e-014 1.98785e-014
rhumerus -49.2163 13.398 -87.8265
rradius 36.5624
rwrist -18.678
rhand -25.6072 -30.1255
rfingers 7.12502
rthumb 0.925144 -60.1032
lclavicle -5.68524e-014 1.98785e-014
lhumerus -16.1052 -21.5476 87.4337
lradius 37.0632
lwrist 6.88339
lhand -12.0643 -23.7425
lfingers 7.12502
lthumb 13.995 5.76639
rfemur -38.9535 11.7356 7.95522
rtibia 28.2852
rfoot -23.1253 -12.3351
rtoes -20.3515
lfemur 9.5688 3.0336 -29.868
ltibia 1.43125e-014
lfoot -12.5956 4.22164
ltoes -3.65969
133
root 9.72745 16.4641 -14.5274 5.68667 4.51304 5.41605
lowerback -7.55175 -4.24834 -7.21757
upperback -0.141269 -5.11418 1.84553
thorax 4.89555 -2.72635 5.35711
lowerneck -20.9546 -4.21926 -12.5169
upperneck 21.6456 -4.91257 11.8589
head 11.0933 -1.85316 5.70158
rclavicle -5.46658e-016 7.95139e-015
rhumerus -48.8808 12.8095 -87.7006
rradius 35.6542
rwrist -18.2272
rhand -25.2616 -29.5002
rfingers 7.12502
rthumb 1.25892 -59.4762
lclavicle -5.46658e-016 7.95139e-015
lhumerus -16.4879 -22.456 87.7607
lradius 38.0747
lwrist 7.26707
lhand -12.0674 -23.7643
lfingers 7.12502
lthumb 13.992 5.74479
rfemur -39.6977 13.7277 6.27179
rtibia 27.8982
rfoot -24.2908 -13.9483
rtoes -18.6029
lfemur 9.90741 3.05465 -30.0314
ltibia 9.54166e-015
lfoot -12.6696 3.97974
ltoes -2.95379
134
root 9.72319 16.4497 -14.3783 5.9096 4.71631 6.00884
lowerback -7.78867 -4.38727 -7.82182
upperback -0.214051 -5.21917 1.65655
thorax 5.00551 -2.79033 5.46738
lowerneck -21.0403 -4.13558 -12.2888
upperneck 21.7277 -4.87874 11.9014
head 11.13 -1.81135 5.688
rclavicle 8.24211e-014 0
rhumerus -48.7742 12.604 -87.8991
rradius 34.8606
rwrist -18.1712
rhand -26.398 -28.5436
rfingers 7.12502
rthumb 0.161388 -58.5232
lclavicle 8.24211e-014 0
lhumerus -16.956 -23.1519 87.9035
lradius 38.9653
lwrist 7.74604
lhand -12.0444 -23.9756
lfingers 7.12502
lthumb 14.0142 5.532
rfemur -40.46 15.5812 4.24578
rtibia 27.6066
rfoot -26.1207 -14.707
rtoes -17.8718
lfemur 10.2596 3.11909 -30.5335
ltibia 3.81667e-014
lfoot -13.0403 3.66971
ltoes -3.13343
